<svg width="20" height="20" viewBox="0 0 20 20" fill="none" xmlns="http://www.w3.org/2000/svg">
<path d="M11.4583 11.875H19.375L18.825 15.2083C18.628 16.374 18.0243 17.4321 17.1212 18.1949C16.218 18.9577 15.0738 19.3758 13.8917 19.375H6.10833C4.92617 19.3758 3.78197 18.9577 2.87883 18.1949C1.97569 17.4321 1.37203 16.374 1.175 15.2083L0.625 11.875H5.20833" stroke="#1A3E72" stroke-width="1.3" stroke-linecap="round" stroke-linejoin="round"/>
<path d="M10.8333 16.4583H5.83334C5.66825 16.4562 5.51053 16.3896 5.39379 16.2729C5.27704 16.1561 5.2105 15.9984 5.20834 15.8333V11.875C5.20834 11.5435 5.34004 11.2255 5.57446 10.9911C5.80888 10.7567 6.12682 10.625 6.45834 10.625H10.2083C10.5399 10.625 10.8578 10.7567 11.0922 10.9911C11.3266 11.2255 11.4583 11.5435 11.4583 11.875V15.8333C11.4562 15.9984 11.3896 16.1561 11.2729 16.2729C11.1562 16.3896 10.9984 16.4562 10.8333 16.4583Z" stroke="#1A3E72" stroke-width="1.3" stroke-linecap="round" stroke-linejoin="round"/>
<path d="M13.125 3.125C13.125 2.46196 13.3884 1.82607 13.8572 1.35723C14.3261 0.888392 14.962 0.625 15.625 0.625C16.288 0.625 16.9239 0.888392 17.3928 1.35723C17.8616 1.82607 18.125 2.46196 18.125 3.125V11.875" stroke="#1A3E72" stroke-width="1.3" stroke-linecap="round" stroke-linejoin="round"/>
<path d="M10.625 5.625C10.625 4.96196 10.8884 4.32607 11.3572 3.85723C11.8261 3.38839 12.462 3.125 13.125 3.125C13.788 3.125 14.4239 3.38839 14.8928 3.85723C15.3616 4.32607 15.625 4.96196 15.625 5.625H10.625Z" stroke="#1A3E72" stroke-width="1.3" stroke-linecap="round" stroke-linejoin="round"/>
</svg>
