<svg width="20" height="18" viewBox="0 0 20 18" fill="none" xmlns="http://www.w3.org/2000/svg">
<path d="M2.5 8.375V6.5C2.5 6.16848 2.6317 5.85054 2.86612 5.61612C3.10054 5.3817 3.41848 5.25 3.75 5.25H8.75C9.08152 5.25 9.39946 5.3817 9.63388 5.61612C9.8683 5.85054 10 6.16848 10 6.5V8.375" stroke="#1A3E72" stroke-width="1.3" stroke-linecap="round" stroke-linejoin="round"/>
<path d="M10 8.375V6.5C10 6.16848 10.1317 5.85054 10.3661 5.61612C10.6005 5.3817 10.9185 5.25 11.25 5.25H16.25C16.5815 5.25 16.8995 5.3817 17.1339 5.61612C17.3683 5.85054 17.5 6.16848 17.5 6.5V8.375" stroke="#1A3E72" stroke-width="1.3" stroke-linecap="round" stroke-linejoin="round"/>
<path d="M2.29167 8.375H17.7083C18.1504 8.375 18.5743 8.5506 18.8868 8.86316C19.1994 9.17572 19.375 9.59964 19.375 10.0417V14H0.625V10.0417C0.625 9.59964 0.800595 9.17572 1.11316 8.86316C1.42572 8.5506 1.84964 8.375 2.29167 8.375V8.375Z" stroke="#1A3E72" stroke-width="1.3" stroke-linecap="round" stroke-linejoin="round"/>
<path d="M0.625 14V16.5" stroke="#1A3E72" stroke-width="1.3" stroke-linecap="round" stroke-linejoin="round"/>
<path d="M19.375 14V16.5" stroke="#1A3E72" stroke-width="1.3" stroke-linecap="round" stroke-linejoin="round"/>
<path d="M17.5 8.375V2.75C17.5 2.41848 17.3683 2.10054 17.1339 1.86612C16.8995 1.6317 16.5815 1.5 16.25 1.5H3.75C3.41848 1.5 3.10054 1.6317 2.86612 1.86612C2.6317 2.10054 2.5 2.41848 2.5 2.75V8.375" stroke="#1A3E72" stroke-width="1.3" stroke-linecap="round" stroke-linejoin="round"/>
</svg>
