<svg width="8" height="12" viewBox="0 0 8 12" fill="none" xmlns="http://www.w3.org/2000/svg">
<path d="M7.07003 3.585C7.04688 3.55865 7.01845 3.53746 6.98658 3.52281C6.9547 3.50817 6.92011 3.5004 6.88503 3.5H5.00003V2.795C5.00003 2.655 5.03003 2.495 5.25503 2.495H6.75503C6.78805 2.49717 6.82111 2.49151 6.85152 2.47847C6.88193 2.46544 6.90883 2.4454 6.93003 2.42C6.95253 2.39782 6.97032 2.37134 6.98235 2.34213C6.99437 2.31292 7.00039 2.28159 7.00003 2.25V0.25C7.00003 0.183696 6.97369 0.120107 6.92681 0.0732233C6.87992 0.0263392 6.81634 0 6.75003 0L4.58503 0C2.18503 0 2.00003 2.05 2.00003 2.675V3.5H0.750031C0.683726 3.5 0.620138 3.52634 0.573254 3.57322C0.52637 3.62011 0.500031 3.6837 0.500031 3.75V5.75C0.500031 5.8163 0.52637 5.87989 0.573254 5.92678C0.620138 5.97366 0.683726 6 0.750031 6H2.00003V11.75C2.00003 11.8163 2.02637 11.8799 2.07325 11.9268C2.12014 11.9737 2.18373 12 2.25003 12H4.75003C4.81634 12 4.87992 11.9737 4.92681 11.9268C4.97369 11.8799 5.00003 11.8163 5.00003 11.75V6H6.67503C6.73722 6.00031 6.7973 5.97743 6.84353 5.93583C6.88975 5.89422 6.91881 5.83688 6.92503 5.775L7.13003 3.775C7.13456 3.74087 7.13153 3.70616 7.12117 3.67333C7.1108 3.64049 7.09334 3.61034 7.07003 3.585Z" fill="white"/>
</svg>
