<svg width="80" height="32" viewBox="0 0 80 32" fill="none" xmlns="http://www.w3.org/2000/svg">
<g clip-path="url(#clip0_1719_13369)">
<path d="M10 9.34122V11.9535H16.4C16.2 13.4555 15.6667 14.5004 14.9333 15.2841C14 16.1984 12.5333 17.2433 9.93333 17.2433C6 17.2433 2.86667 14.1086 2.86667 10.1902C2.86667 6.27184 6 3.20245 10 3.20245C12.1333 3.20245 13.6667 4.05143 14.8667 5.09633L16.7333 3.26776C15.1333 1.70041 13 0.524902 10 0.524902C4.6 0.524902 0 4.90041 0 10.1902C0 15.48 4.53333 19.8555 10 19.8555C12.9333 19.8555 15.1333 18.9412 16.8667 17.178C18.6667 15.4147 19.2 12.9984 19.2 10.9739C19.2 10.3861 19.1333 9.79836 19.0667 9.34122H10Z" fill="white"/>
<path d="M27.1995 7.18555C23.6661 7.18555 20.7995 9.79779 20.7995 13.4549C20.7995 17.0468 23.6661 19.7243 27.1995 19.7243C30.7328 19.7243 33.5995 17.1121 33.5995 13.4549C33.5995 9.79779 30.7328 7.18555 27.1995 7.18555ZM27.1995 17.1774C25.2661 17.1774 23.5995 15.61 23.5995 13.3896C23.5995 11.1692 25.2661 9.60187 27.1995 9.60187C29.1328 9.60187 30.7995 11.1692 30.7995 13.3896C30.7995 15.6753 29.1328 17.1774 27.1995 17.1774Z" fill="white"/>
<path d="M58.4661 8.55698H58.3995C57.7995 7.83861 56.5995 7.18555 55.0661 7.18555C51.8661 7.18555 49.1328 9.9284 49.1328 13.4549C49.1328 16.9815 51.9328 19.7243 55.0661 19.7243C56.5995 19.7243 57.7995 19.0713 58.3995 18.2876H58.4661V19.1366C58.4661 21.5529 57.1328 22.7937 55.0661 22.7937C53.3328 22.7937 52.2661 21.6182 51.8661 20.5733L49.4661 21.5529C50.1995 23.1855 51.9995 25.21 55.1328 25.21C58.3995 25.21 61.1995 23.3162 61.1995 18.6794V7.51208H58.5328V8.55698H58.4661ZM55.2661 17.1774C53.3328 17.1774 51.8661 15.5447 51.8661 13.3896C51.8661 11.1692 53.3328 9.60187 55.2661 9.60187C57.1995 9.60187 58.6661 11.2345 58.6661 13.3896C58.6661 15.61 57.1995 17.1774 55.2661 17.1774Z" fill="white"/>
<path d="M41.4664 7.18555C37.9331 7.18555 35.0664 9.79779 35.0664 13.4549C35.0664 17.0468 37.9331 19.7243 41.4664 19.7243C44.9997 19.7243 47.8664 17.1121 47.8664 13.4549C47.7997 9.79779 44.9331 7.18555 41.4664 7.18555ZM41.4664 17.1774C39.5331 17.1774 37.8664 15.61 37.8664 13.3896C37.8664 11.1692 39.5331 9.60187 41.4664 9.60187C43.3997 9.60187 45.0664 11.1692 45.0664 13.3896C45.0664 15.6753 43.3997 17.1774 41.4664 17.1774Z" fill="white"/>
<path d="M63.3333 0.786377H66.0667V19.6598H63.3333V0.786377Z" fill="white"/>
<path d="M74.5334 17.1776C73.1334 17.1776 72.1334 16.5246 71.4667 15.2837L80 11.8225L79.7333 11.1042C79.2 9.73273 77.6 7.12048 74.2667 7.12048C71 7.12048 68.2667 9.66742 68.2667 13.3899C68.2667 16.9164 70.9334 19.6593 74.6 19.6593C77.5334 19.6593 79.2 17.896 79.8667 16.9164L77.7333 15.4797C76.9334 16.5246 76 17.1776 74.5334 17.1776ZM74.3334 9.53681C75.4667 9.53681 76.4 10.1246 76.7334 10.9082L71 13.2593C71 10.5817 72.9334 9.53681 74.3334 9.53681Z" fill="white"/>
<path d="M6.93107 24.9406V27.4156H8.48273C8.8552 27.4156 9.2276 27.2949 9.47587 27.0534C9.72413 26.8119 9.91033 26.5101 9.91033 26.1479C9.91033 25.846 9.7862 25.5442 9.53793 25.3028C9.28967 25.0613 8.97933 24.9406 8.60687 24.9406H6.93107ZM6.93107 31.0376H6V24.035H8.5448C9.16553 24.035 9.72413 24.2161 10.2207 24.6387C10.6552 25.0613 10.9035 25.5442 10.9035 26.1479C10.9035 26.6308 10.7173 27.0534 10.4069 27.4156C10.0965 27.7778 9.66207 28.0193 9.10347 28.14L11.2138 30.9773V31.0376H10.0965L8.04827 28.2004H6.99313V31.0376H6.93107ZM14.0689 31.2187C13.3241 31.2187 12.7035 30.9773 12.2069 30.4943C11.7103 30.0114 11.4621 29.4077 11.4621 28.6833C11.4621 27.9589 11.7103 27.3552 12.1448 26.8723C12.6414 26.3894 13.2 26.1479 13.9448 26.1479C14.6897 26.1479 15.3103 26.3894 15.7448 26.8119C16.1793 27.2949 16.4276 27.8985 16.4276 28.7437V28.8644H12.3931C12.3931 29.3474 12.5793 29.7095 12.8897 30.0114C13.2 30.3132 13.5724 30.4339 14.0689 30.4339C14.6897 30.4339 15.1862 30.1321 15.4965 29.5888L16.3655 29.951C16.1173 30.3736 15.8069 30.6754 15.4345 30.9169C15.0621 31.098 14.5655 31.2187 14.0689 31.2187ZM12.5173 28.0796H15.4345C15.4345 27.7175 15.2483 27.4759 15 27.2345C14.7517 26.993 14.3793 26.9327 13.9448 26.9327C13.5724 26.9327 13.2621 27.0534 13.0138 27.2345C12.7655 27.4759 12.6414 27.7175 12.5173 28.0796ZM19.7173 31.0376H18.7862L16.7379 26.2686H17.7931L19.2827 30.0114L20.8345 26.2686H21.8276L19.7173 31.0376ZM23.6897 24.6387C23.6897 24.8198 23.6276 24.9406 23.5035 25.0613C23.3793 25.182 23.1931 25.2424 23.0069 25.2424C22.8207 25.2424 22.6345 25.182 22.5103 25.0613C22.3862 24.9406 22.3241 24.7595 22.3241 24.6387C22.3241 24.518 22.3862 24.3369 22.5103 24.2161C22.6345 24.0954 22.8207 24.035 23.0069 24.035C23.1931 24.035 23.3793 24.0954 23.5035 24.2161C23.6276 24.3369 23.6897 24.4576 23.6897 24.6387ZM23.5035 26.2686V31.0376H22.5724V26.2686H23.5035ZM26.9793 31.2187C26.2345 31.2187 25.6138 30.9773 25.1173 30.4943C24.6207 30.0114 24.3724 29.4077 24.3724 28.6833C24.3724 27.9589 24.6207 27.3552 25.0552 26.8723C25.5517 26.3894 26.1103 26.1479 26.8552 26.1479C27.6 26.1479 28.2207 26.3894 28.6552 26.8119C29.0897 27.2949 29.3379 27.8985 29.3379 28.7437V28.8644H25.3035C25.3035 29.3474 25.4897 29.7095 25.8 30.0114C26.1103 30.3132 26.4827 30.4339 26.9793 30.4339C27.6 30.4339 28.0965 30.1321 28.4069 29.5888L29.2759 29.951C29.0276 30.3736 28.7173 30.6754 28.3448 30.9169C27.9724 31.098 27.5379 31.2187 26.9793 31.2187ZM25.4897 28.0796H28.4069C28.4069 27.7175 28.2207 27.4759 27.9724 27.2345C27.7241 26.993 27.3517 26.9327 26.9173 26.9327C26.5448 26.9327 26.2345 27.0534 25.9862 27.2345C25.7379 27.4759 25.5517 27.7175 25.4897 28.0796ZM37.4689 26.2686L35.7931 31.0376H34.8L33.4965 27.3552L32.2552 31.0376H31.2621L29.5862 26.2686H30.5793L31.6965 29.8906L32.9379 26.2686H33.9311L35.1724 29.8906L36.2897 26.2686H37.4689ZM42 29.7095C42 30.1321 41.8138 30.4943 41.4414 30.7962C41.0689 31.098 40.5103 31.2187 39.9517 31.2187C39.4552 31.2187 38.9586 31.098 38.5862 30.8565C38.2138 30.615 37.9035 30.2528 37.7793 29.8906L38.6483 29.5285C38.7724 29.8303 38.9586 30.0114 39.2069 30.1925C39.4552 30.3736 39.7035 30.4339 40.0138 30.4339C40.3241 30.4339 40.5724 30.3736 40.7586 30.2528C40.9448 30.1321 41.0689 30.0114 41.0689 29.8303C41.0689 29.5285 40.8207 29.287 40.3241 29.1663L39.4552 28.9851C38.4621 28.7437 37.9655 28.3211 37.9655 27.657C37.9655 27.2345 38.1517 26.8723 38.5241 26.6308C38.8965 26.3894 39.3931 26.2082 39.9517 26.2082C40.3862 26.2082 40.8207 26.329 41.1931 26.5101C41.5655 26.6912 41.8138 26.993 41.9379 27.2949L41.0689 27.657C40.9448 27.4759 40.8207 27.2949 40.5724 27.1741C40.3241 27.0534 40.1379 26.993 39.8276 26.993C39.5793 26.993 39.3311 27.0534 39.1448 27.1741C38.9586 27.2949 38.8345 27.4156 38.8345 27.5967C38.8345 27.8985 39.0827 28.0796 39.6414 28.2004L40.3862 28.3815C41.5035 28.5022 42 28.9851 42 29.7095Z" fill="white"/>
<path d="M46.4253 30.1585C46.467 30.1344 46.5188 30.1344 46.5605 30.1585L47.7771 30.8595C47.8778 30.9175 48.0007 30.8295 47.9747 30.7179L47.6662 29.3929C47.6551 29.3453 47.6721 29.2956 47.7102 29.2641L48.7704 28.3871C48.8611 28.312 48.814 28.167 48.6957 28.1572L47.3011 28.0414C47.2527 28.0373 47.2103 28.0078 47.1905 27.9642L46.6173 26.701C46.57 26.5967 46.4185 26.5978 46.3728 26.7029L45.8251 27.9625C45.8058 28.007 45.7629 28.0374 45.7137 28.0415L44.3205 28.1572C44.2022 28.167 44.1551 28.312 44.2458 28.3871L45.3049 29.2632C45.3436 29.2952 45.3604 29.3459 45.3483 29.3941L45.0179 30.7122C44.9897 30.8244 45.1133 30.9145 45.2149 30.8559L46.4253 30.1585Z" fill="white"/>
<path d="M52.1714 30.1585C52.2131 30.1344 52.2649 30.1344 52.3066 30.1585L53.5231 30.8595C53.6239 30.9175 53.7467 30.8295 53.7207 30.7179L53.4123 29.3929C53.4012 29.3453 53.4182 29.2956 53.4563 29.2641L54.5165 28.3871C54.6073 28.312 54.5601 28.167 54.4417 28.1572L53.0472 28.0414C52.9987 28.0373 52.9563 28.0078 52.9366 27.9642L52.3635 26.701C52.3161 26.5967 52.1646 26.5978 52.1189 26.7029L51.5712 27.9625C51.5519 28.007 51.509 28.0374 51.4598 28.0415L50.0667 28.1572C49.9483 28.167 49.9011 28.312 49.9919 28.3871L51.0509 29.2632C51.0897 29.2952 51.1065 29.3459 51.0944 29.3941L50.7639 30.7122C50.7358 30.8244 50.8593 30.9145 50.961 30.8559L52.1714 30.1585Z" fill="white"/>
<path d="M57.9175 30.1585C57.9592 30.1344 58.011 30.1344 58.0527 30.1585L59.2693 30.8595C59.37 30.9175 59.4929 30.8295 59.4669 30.7179L59.1584 29.3929C59.1473 29.3453 59.1643 29.2956 59.2023 29.2641L60.2626 28.3871C60.3533 28.312 60.3061 28.167 60.1878 28.1572L58.7933 28.0414C58.7448 28.0373 58.7025 28.0078 58.6827 27.9642L58.1095 26.701C58.0622 26.5967 57.9107 26.5978 57.865 26.7029L57.3173 27.9625C57.2979 28.007 57.2551 28.0374 57.2059 28.0415L55.8128 28.1572C55.6944 28.167 55.6473 28.312 55.738 28.3871L56.7971 29.2632C56.8358 29.2952 56.8526 29.3459 56.8406 29.3941L56.51 30.7122C56.4819 30.8244 56.6055 30.9145 56.7072 30.8559L57.9175 30.1585Z" fill="white"/>
<path d="M63.6636 30.1585C63.7053 30.1344 63.7571 30.1344 63.7988 30.1585L65.0154 30.8595C65.1162 30.9175 65.2389 30.8295 65.2129 30.7179L64.9045 29.3929C64.8934 29.3453 64.9103 29.2956 64.9485 29.2641L66.0087 28.3871C66.0994 28.312 66.0523 28.167 65.934 28.1572L64.5394 28.0414C64.4909 28.0373 64.4486 28.0078 64.4288 27.9642L63.8556 26.701C63.8083 26.5967 63.6568 26.5978 63.6111 26.7029L63.0634 27.9625C63.0441 28.007 63.0012 28.0374 62.952 28.0415L61.5589 28.1572C61.4405 28.167 61.3933 28.312 61.4841 28.3871L62.5431 29.2632C62.5819 29.2952 62.5987 29.3459 62.5866 29.3941L62.2561 30.7122C62.228 30.8244 62.3515 30.9145 62.4532 30.8559L63.6636 30.1585Z" fill="white"/>
<path d="M69.41 30.1585C69.4513 30.1344 69.5033 30.1344 69.5447 30.1585L70.7613 30.8595C70.862 30.9175 70.9853 30.8295 70.9593 30.7179L70.6507 29.3929C70.6393 29.3453 70.6567 29.2956 70.6947 29.2641L71.7547 28.3871C71.8453 28.312 71.7987 28.167 71.68 28.1572L70.2853 28.0414C70.2373 28.0373 70.1947 28.0078 70.1747 27.9642L69.602 26.701C69.5547 26.5967 69.4027 26.5978 69.3573 26.7029L68.8093 27.9625C68.79 28.007 68.7473 28.0374 68.698 28.0415L67.3047 28.1572C67.1867 28.167 67.1393 28.312 67.23 28.3871L68.2893 29.2632C68.328 29.2952 68.3447 29.3459 68.3327 29.3941L68.002 30.7122C67.974 30.8244 68.0973 30.9145 68.1993 30.8559L69.41 30.1585Z" fill="white"/>
</g>
<defs>
<clipPath id="clip0_1719_13369">
<rect width="80" height="32" fill="white"/>
</clipPath>
</defs>
</svg>
