<svg width="12" height="12" viewBox="0 0 12 12" fill="none" xmlns="http://www.w3.org/2000/svg">
<path d="M9.035 5.625C9.01566 5.62537 8.99665 5.63005 8.97935 5.6387C8.96205 5.64735 8.9469 5.65975 8.935 5.675C8.92383 5.68984 8.91585 5.70683 8.91155 5.72489C8.90725 5.74296 8.90672 5.76172 8.91 5.78C8.97066 6.01516 9.00091 6.25714 9 6.5C9 7.29565 8.68393 8.05871 8.12132 8.62132C7.55871 9.18393 6.79565 9.5 6 9.5C5.20435 9.5 4.44129 9.18393 3.87868 8.62132C3.31607 8.05871 3 7.29565 3 6.5C2.99909 6.25714 3.02934 6.01516 3.09 5.78C3.09701 5.76339 3.10063 5.74553 3.10063 5.7275C3.10063 5.70947 3.09701 5.69161 3.09 5.675C3.0781 5.65975 3.06295 5.64735 3.04565 5.6387C3.02835 5.63005 3.00934 5.62537 2.99 5.625H0.25C0.183696 5.625 0.120107 5.65134 0.0732233 5.69822C0.0263392 5.74511 0 5.8087 0 5.875L0 8.75C0.00132241 9.61155 0.344157 10.4374 0.953364 11.0466C1.56257 11.6558 2.38845 11.9987 3.25 12H8.75C9.61155 11.9987 10.4374 11.6558 11.0466 11.0466C11.6558 10.4374 11.9987 9.61155 12 8.75V5.875C12 5.8087 11.9737 5.74511 11.9268 5.69822C11.8799 5.65134 11.8163 5.625 11.75 5.625H9.035Z" fill="white"/>
<path d="M11.75 4.87503C11.8163 4.87503 11.8799 4.8487 11.9268 4.80181C11.9737 4.75493 12 4.69134 12 4.62503V3.25003C11.9987 2.38849 11.6558 1.5626 11.0466 0.953398C10.4374 0.344191 9.61155 0.00135666 8.75 3.42515e-05H5.875C5.8087 3.42515e-05 5.74511 0.0263735 5.69822 0.0732576C5.65134 0.120142 5.625 0.18373 5.625 0.250034V2.25003C5.625 2.34949 5.58549 2.44487 5.51516 2.5152C5.44484 2.58553 5.34946 2.62503 5.25 2.62503C5.15054 2.62503 5.05516 2.58553 4.98484 2.5152C4.91451 2.44487 4.875 2.34949 4.875 2.25003V0.250034C4.875 0.18373 4.84866 0.120142 4.80178 0.0732576C4.75489 0.0263735 4.6913 3.42515e-05 4.625 3.42515e-05H4.375C4.3087 3.42515e-05 4.24511 0.0263735 4.19822 0.0732576C4.15134 0.120142 4.125 0.18373 4.125 0.250034V2.25003C4.125 2.34949 4.08549 2.44487 4.01516 2.5152C3.94484 2.58553 3.84946 2.62503 3.75 2.62503C3.65054 2.62503 3.55516 2.58553 3.48483 2.5152C3.41451 2.44487 3.375 2.34949 3.375 2.25003V0.250034C3.37353 0.184206 3.34666 0.121497 3.3 0.0750343C3.27656 0.0497194 3.24783 0.0298763 3.21586 0.0169142C3.18389 0.00395208 3.14945 -0.00181099 3.115 3.42515e-05C3.02339 -0.00456871 2.93161 -0.00456871 2.84 3.42515e-05C2.78037 0.00950425 2.72603 0.0398283 2.68666 0.0856085C2.64728 0.131389 2.62544 0.189654 2.625 0.250034V2.25003C2.625 2.34949 2.58549 2.44487 2.51517 2.5152C2.44484 2.58553 2.34946 2.62503 2.25 2.62503C2.15054 2.62503 2.05516 2.58553 1.98483 2.5152C1.91451 2.44487 1.875 2.34949 1.875 2.25003V0.500034C1.87241 0.480819 1.86571 0.462389 1.85535 0.445995C1.845 0.429602 1.83124 0.415632 1.815 0.405034C1.796 0.394063 1.77444 0.388287 1.7525 0.388287C1.73056 0.388287 1.709 0.394063 1.69 0.405034C1.17899 0.684029 0.75245 1.09537 0.455106 1.59593C0.157763 2.09649 0.000566628 2.66782 0 3.25003L0 4.62503C0 4.69134 0.0263392 4.75493 0.0732233 4.80181C0.120107 4.8487 0.183696 4.87503 0.25 4.87503H3.35C3.38994 4.87446 3.42921 4.86468 3.46476 4.84647C3.50031 4.82826 3.53119 4.80211 3.555 4.77003C3.83235 4.37995 4.199 4.06189 4.62435 3.84241C5.04969 3.62294 5.52137 3.50842 6 3.50842C6.47863 3.50842 6.95031 3.62294 7.37565 3.84241C7.801 4.06189 8.16765 4.37995 8.445 4.77003C8.46881 4.80211 8.49969 4.82826 8.53524 4.84647C8.57079 4.86468 8.61006 4.87446 8.65 4.87503H11.75ZM8.75 2.25003C8.75 2.11743 8.80268 1.99025 8.89645 1.89648C8.99021 1.80271 9.11739 1.75003 9.25 1.75003H9.75C9.88261 1.75003 10.0098 1.80271 10.1036 1.89648C10.1973 1.99025 10.25 2.11743 10.25 2.25003V2.75003C10.25 2.88264 10.1973 3.00982 10.1036 3.10359C10.0098 3.19736 9.88261 3.25003 9.75 3.25003H9.25C9.11739 3.25003 8.99021 3.19736 8.89645 3.10359C8.80268 3.00982 8.75 2.88264 8.75 2.75003V2.25003Z" fill="white"/>
<path d="M6 8C6.82843 8 7.5 7.32843 7.5 6.5C7.5 5.67157 6.82843 5 6 5C5.17157 5 4.5 5.67157 4.5 6.5C4.5 7.32843 5.17157 8 6 8Z" fill="white"/>
</svg>
