<svg width="14" height="14" viewBox="0 0 14 14" fill="none" xmlns="http://www.w3.org/2000/svg">
<path d="M4.77977 6.80089C5.29842 7.86123 6.15792 8.71682 7.2206 9.23064C7.29835 9.26748 7.38436 9.28344 7.47015 9.27695C7.55595 9.27046 7.63857 9.24174 7.7099 9.19362L9.27462 8.15022C9.34383 8.10408 9.42345 8.07592 9.50628 8.06831C9.58911 8.06071 9.67253 8.07388 9.74898 8.10665L12.6763 9.36121C12.7757 9.40345 12.8588 9.47686 12.9128 9.57039C12.9669 9.66392 12.9892 9.77249 12.9762 9.87975C12.8837 10.6038 12.5304 11.2692 11.9826 11.7515C11.4347 12.2338 10.7299 12.4999 10 12.4999C7.74566 12.4999 5.58365 11.6044 3.98959 10.0103C2.39553 8.41629 1.5 6.25428 1.5 3.99994C1.50004 3.27005 1.76612 2.5652 2.24843 2.01736C2.73073 1.46953 3.39618 1.11628 4.12019 1.02375C4.22745 1.01077 4.33602 1.033 4.42955 1.08709C4.52307 1.14118 4.59649 1.2242 4.63873 1.32364L5.89439 4.25351C5.92687 4.32929 5.9401 4.41193 5.93291 4.49407C5.92572 4.5762 5.89833 4.65529 5.85318 4.72427L4.81341 6.31301C4.76608 6.38448 4.7381 6.467 4.73221 6.55251C4.72631 6.63803 4.7427 6.72361 4.77977 6.80089V6.80089Z" stroke="#11284A" stroke-width="1.3" stroke-linecap="round" stroke-linejoin="round"/>
</svg>
