<svg width="7" height="6" viewBox="0 0 7 6" fill="none" xmlns="http://www.w3.org/2000/svg">
<path d="M3.45128 4.69811C3.50292 4.66807 3.56702 4.66807 3.61867 4.69811L5.12413 5.57435C5.24879 5.64692 5.40083 5.53688 5.36866 5.39737L4.98693 3.74121C4.97324 3.6817 4.99419 3.61958 5.04138 3.58015L6.35338 2.4839C6.46566 2.39003 6.40734 2.20872 6.2609 2.19648L4.53508 2.05174C4.47518 2.04668 4.42271 2.00978 4.39829 1.95533L3.68896 0.376231C3.63039 0.245864 3.44286 0.247332 3.38635 0.378598L2.70861 1.95321C2.68469 2.0088 2.63164 2.04676 2.57076 2.0519L0.846667 2.19648C0.700229 2.20872 0.641903 2.39003 0.754186 2.4839L2.06478 3.57901C2.11271 3.61901 2.1335 3.68243 2.11857 3.74268L1.70962 5.39027C1.67481 5.53052 1.82768 5.64317 1.95349 5.56994L3.45128 4.69811Z" fill="white"/>
</svg>
