<svg width="12" height="10" viewBox="0 0 12 10" fill="none" xmlns="http://www.w3.org/2000/svg">
<path d="M11.66 2.2199C11.6956 2.19033 11.7223 2.15147 11.7371 2.10763C11.7519 2.0638 11.7542 2.01672 11.7438 1.97164C11.7335 1.92655 11.7108 1.88522 11.6784 1.85225C11.6459 1.81928 11.6049 1.79597 11.56 1.7849L11.165 1.6899C11.1286 1.68076 11.0948 1.66338 11.0662 1.63911C11.0376 1.61483 11.015 1.58431 11 1.5499C10.984 1.51632 10.9757 1.4796 10.9757 1.4424C10.9757 1.40521 10.984 1.36848 11 1.3349L11.225 0.889903C11.2464 0.846336 11.2546 0.797485 11.2487 0.749311C11.2428 0.701138 11.223 0.655725 11.1917 0.618614C11.1605 0.581504 11.1191 0.5543 11.0726 0.540323C11.0261 0.526346 10.9766 0.5262 10.93 0.539903L9.93001 0.819904C9.89317 0.830057 9.85445 0.831271 9.81705 0.823444C9.77966 0.815617 9.74467 0.798976 9.715 0.774903C9.34358 0.496336 8.90192 0.3267 8.43952 0.285005C7.97712 0.24331 7.51224 0.331203 7.09697 0.538835C6.68171 0.746468 6.33246 1.06564 6.08838 1.46058C5.84429 1.85552 5.71501 2.31062 5.71501 2.7749V2.9549C5.71523 2.98561 5.70414 3.01533 5.68385 3.03838C5.66356 3.06144 5.63549 3.07622 5.60501 3.0799C4.20001 3.2449 2.85501 2.5299 1.40501 0.859904C1.37442 0.823808 1.33423 0.79713 1.28909 0.782969C1.24395 0.768808 1.19572 0.767745 1.15001 0.779903C1.10645 0.798208 1.06912 0.828714 1.04251 0.867747C1.0159 0.90678 1.00114 0.952675 1.00001 0.999904C0.797377 1.8224 0.878421 2.68922 1.23001 3.4599C1.24095 3.47982 1.24668 3.50218 1.24668 3.5249C1.24668 3.54763 1.24095 3.56999 1.23001 3.5899C1.21656 3.60978 1.19746 3.62517 1.17518 3.63408C1.15289 3.643 1.12845 3.64502 1.10501 3.6399L0.540005 3.5299C0.50003 3.52448 0.459341 3.52843 0.421158 3.54145C0.382974 3.55447 0.348343 3.57619 0.320005 3.6049C0.292739 3.63395 0.272657 3.66898 0.261369 3.70718C0.250081 3.74539 0.247902 3.7857 0.255005 3.8249C0.298175 4.20863 0.427092 4.57773 0.632215 4.90489C0.837338 5.23205 1.11341 5.50888 1.44001 5.7149C1.45957 5.72675 1.47551 5.74373 1.48609 5.76401C1.49667 5.78429 1.50148 5.80708 1.50001 5.8299C1.49976 5.85359 1.49251 5.87668 1.47916 5.89626C1.46581 5.91583 1.44697 5.93102 1.42501 5.9399L1.15501 6.0449C1.09106 6.07291 1.04075 6.12502 1.01501 6.1899C1.00153 6.22152 0.994579 6.25553 0.994579 6.2899C0.994579 6.32427 1.00153 6.35829 1.01501 6.3899C1.16155 6.71057 1.38368 6.9909 1.66235 7.20687C1.94103 7.42284 2.26792 7.568 2.61501 7.6299C2.63968 7.63727 2.66174 7.65154 2.67857 7.67103C2.6954 7.69052 2.70631 7.71442 2.71001 7.7399C2.71248 7.76667 2.70659 7.79354 2.69316 7.81682C2.67973 7.8401 2.65941 7.85865 2.635 7.8699C1.95771 8.14726 1.23186 8.28665 0.500005 8.2799C0.433701 8.26664 0.364845 8.28026 0.308584 8.31777C0.252323 8.35528 0.213266 8.4136 0.200005 8.4799C0.186744 8.54621 0.200366 8.61506 0.237873 8.67132C0.27538 8.72759 0.333701 8.76664 0.400005 8.7799C1.67307 9.38603 3.06033 9.71495 4.47001 9.7449C5.70965 9.76322 6.92715 9.41536 7.97001 8.7449C8.82825 8.17307 9.53138 7.39744 10.0165 6.48737C10.5016 5.57731 10.7537 4.56119 10.75 3.5299V3.0949C10.75 3.05854 10.758 3.02262 10.7736 2.98976C10.7892 2.9569 10.8118 2.92791 10.84 2.9049L11.66 2.2199Z" fill="white"/>
</svg>
