<svg width="20" height="20" viewBox="0 0 20 20" fill="none" xmlns="http://www.w3.org/2000/svg">
<path d="M17.1342 0.625L19.1925 2.68333C19.2505 2.7413 19.2966 2.81015 19.328 2.88594C19.3594 2.96172 19.3756 3.04296 19.3756 3.125C19.3756 3.20704 19.3594 3.28828 19.328 3.36406C19.2966 3.43985 19.2505 3.5087 19.1925 3.56667L17.1342 5.625" stroke="#1A3E72" stroke-width="1.3" stroke-linecap="round" stroke-linejoin="round"/>
<path d="M3.125 19.375V4.375C3.125 4.04348 3.2567 3.72554 3.49112 3.49112C3.72554 3.2567 4.04348 3.125 4.375 3.125H19.375" stroke="#1A3E72" stroke-width="1.3" stroke-linecap="round" stroke-linejoin="round"/>
<path d="M5.625 17.1343L3.5675 19.1918C3.50946 19.2499 3.44054 19.2959 3.36469 19.3274C3.28883 19.3588 3.20753 19.375 3.12542 19.375C3.04331 19.375 2.962 19.3588 2.88615 19.3274C2.81029 19.2959 2.74138 19.2499 2.68333 19.1918L0.625 17.1343" stroke="#1A3E72" stroke-width="1.3" stroke-linecap="round" stroke-linejoin="round"/>
<path d="M18.125 19.375C18.4565 19.375 18.7745 19.2433 19.0089 19.0089C19.2433 18.7745 19.375 18.4565 19.375 18.125" stroke="#1A3E72" stroke-width="1.3" stroke-linecap="round" stroke-linejoin="round"/>
<path d="M15.625 19.375H14.375" stroke="#1A3E72" stroke-width="1.3" stroke-linecap="round" stroke-linejoin="round"/>
<path d="M11.875 19.375H10.625" stroke="#1A3E72" stroke-width="1.3" stroke-linecap="round" stroke-linejoin="round"/>
<path d="M8.125 19.375H6.875" stroke="#1A3E72" stroke-width="1.3" stroke-linecap="round" stroke-linejoin="round"/>
<path d="M19.375 15.625V14.375" stroke="#1A3E72" stroke-width="1.3" stroke-linecap="round" stroke-linejoin="round"/>
<path d="M19.375 11.875V10.625" stroke="#1A3E72" stroke-width="1.3" stroke-linecap="round" stroke-linejoin="round"/>
<path d="M19.375 8.125V6.875" stroke="#1A3E72" stroke-width="1.3" stroke-linecap="round" stroke-linejoin="round"/>
</svg>
