<svg width="12" height="12" viewBox="0 0 12 12" fill="none" xmlns="http://www.w3.org/2000/svg">
<path d="M2.94999 2.56004V4.69004C2.94999 4.7895 2.9895 4.88488 3.05983 4.95521C3.13015 5.02553 3.22554 5.06504 3.32499 5.06504C3.42445 5.06504 3.51983 5.02553 3.59016 4.95521C3.66048 4.88488 3.69999 4.7895 3.69999 4.69004V2.56004L5.12499 0.665042C5.15487 0.625645 5.17669 0.58075 5.18922 0.53292C5.20174 0.485089 5.20472 0.43526 5.19799 0.386277C5.19126 0.337294 5.17495 0.290117 5.14998 0.247439C5.12502 0.204761 5.09189 0.167418 5.05249 0.137542C5.0131 0.107666 4.9682 0.0858428 4.92037 0.0733176C4.87254 0.0607925 4.82271 0.0578109 4.77373 0.0645431C4.72474 0.0712754 4.67757 0.0875896 4.63489 0.112554C4.59221 0.137519 4.55487 0.170645 4.52499 0.210042L3.32499 1.81004L2.12499 0.210042C2.06466 0.130477 1.97518 0.0781395 1.87626 0.0645432C1.77733 0.0509468 1.67706 0.0772052 1.59749 0.137542C1.51793 0.197879 1.46559 0.287351 1.45199 0.386277C1.4384 0.485202 1.46466 0.585477 1.52499 0.665042L2.94999 2.56004Z" fill="white"/>
<path d="M4.72501 2.43994V3.93994C4.72501 4.23831 4.84353 4.52446 5.05451 4.73544C5.26549 4.94641 5.55164 5.06494 5.85001 5.06494C6.14837 5.06494 6.43452 4.94641 6.6455 4.73544C6.85648 4.52446 6.97501 4.23831 6.97501 3.93994V2.43994C6.97501 2.14157 6.85648 1.85542 6.6455 1.64445C6.43452 1.43347 6.14837 1.31494 5.85001 1.31494C5.55164 1.31494 5.26549 1.43347 5.05451 1.64445C4.84353 1.85542 4.72501 2.14157 4.72501 2.43994V2.43994ZM5.47501 2.43994C5.47501 2.34049 5.51452 2.2451 5.58484 2.17478C5.65517 2.10445 5.75055 2.06494 5.85001 2.06494C5.94946 2.06494 6.04485 2.10445 6.11517 2.17478C6.1855 2.2451 6.22501 2.34049 6.22501 2.43994V3.93994C6.22501 4.0394 6.1855 4.13478 6.11517 4.20511C6.04485 4.27543 5.94946 4.31494 5.85001 4.31494C5.75055 4.31494 5.65517 4.27543 5.58484 4.20511C5.51452 4.13478 5.47501 4.0394 5.47501 3.93994V2.43994Z" fill="white"/>
<path d="M7.905 4.66006C8.03214 4.78764 8.18336 4.8887 8.34987 4.95737C8.51639 5.02603 8.69489 5.06094 8.875 5.06006C9.11402 5.05945 9.34862 4.99562 9.555 4.87506C9.58744 4.93124 9.63408 4.97791 9.69025 5.01038C9.74641 5.04285 9.81013 5.05998 9.875 5.06006C9.97446 5.06006 10.0698 5.02055 10.1402 4.95022C10.2105 4.8799 10.25 4.78451 10.25 4.68506V3.68506V1.68506C10.25 1.5856 10.2105 1.49022 10.1402 1.41989C10.0698 1.34957 9.97446 1.31006 9.875 1.31006C9.77555 1.31006 9.68016 1.34957 9.60984 1.41989C9.53951 1.49022 9.5 1.5856 9.5 1.68506V3.68506C9.49868 3.84995 9.43225 4.00764 9.31519 4.12377C9.19812 4.2399 9.0399 4.30506 8.875 4.30506V4.30506C8.7101 4.30506 8.55189 4.2399 8.43482 4.12377C8.31775 4.00764 8.25132 3.84995 8.25 3.68506V1.68506C8.25 1.5856 8.21049 1.49022 8.14017 1.41989C8.06984 1.34957 7.97446 1.31006 7.875 1.31006C7.77555 1.31006 7.68016 1.34957 7.60984 1.41989C7.53951 1.49022 7.5 1.5856 7.5 1.68506V3.68506C7.49967 3.86628 7.53529 4.04578 7.60481 4.21314C7.67433 4.3805 7.77636 4.53241 7.905 4.66006V4.66006Z" fill="white"/>
<path d="M9.25 8.68506C9.25 8.61875 9.22366 8.55517 9.17678 8.50828C9.12989 8.4614 9.0663 8.43506 9 8.43506C8.9337 8.43506 8.87011 8.4614 8.82322 8.50828C8.77634 8.55517 8.75 8.61875 8.75 8.68506V8.93506H9.25V8.68506Z" fill="white"/>
<path d="M7 8.43506C6.9337 8.43506 6.87011 8.4614 6.82322 8.50828C6.77634 8.55517 6.75 8.61875 6.75 8.68506V9.68506C6.75 9.75136 6.77634 9.81495 6.82322 9.86183C6.87011 9.90872 6.9337 9.93506 7 9.93506C7.0663 9.93506 7.12989 9.90872 7.17678 9.86183C7.22366 9.81495 7.25 9.75136 7.25 9.68506V8.68506C7.25 8.61875 7.22366 8.55517 7.17678 8.50828C7.12989 8.4614 7.0663 8.43506 7 8.43506Z" fill="white"/>
<path d="M9.5 5.93506H2.5C1.90367 5.93638 1.33214 6.17386 0.910469 6.59553C0.488798 7.0172 0.251321 7.58873 0.25 8.18506V9.68506C0.25 10.2818 0.487053 10.8541 0.90901 11.276C1.33097 11.698 1.90326 11.9351 2.5 11.9351H9.5C10.0967 11.9351 10.669 11.698 11.091 11.276C11.5129 10.8541 11.75 10.2818 11.75 9.68506V8.18506C11.7487 7.58873 11.5112 7.0172 11.0895 6.59553C10.6679 6.17386 10.0963 5.93638 9.5 5.93506V5.93506ZM4 7.93506H3.25V10.1751C3.25 10.2414 3.22366 10.305 3.17678 10.3518C3.12989 10.3987 3.0663 10.4251 3 10.4251C2.9337 10.4251 2.87011 10.3987 2.82322 10.3518C2.77634 10.305 2.75 10.2414 2.75 10.1751V7.93506H2C1.9337 7.93506 1.87011 7.90872 1.82322 7.86184C1.77634 7.81495 1.75 7.75136 1.75 7.68506C1.75 7.61875 1.77634 7.55517 1.82322 7.50828C1.87011 7.4614 1.9337 7.43506 2 7.43506H4C4.0663 7.43506 4.12989 7.4614 4.17678 7.50828C4.22366 7.55517 4.25 7.61875 4.25 7.68506C4.25 7.75136 4.22366 7.81495 4.17678 7.86184C4.12989 7.90872 4.0663 7.93506 4 7.93506ZM5.74 9.68506V10.1851C5.74 10.2514 5.71366 10.315 5.66678 10.3618C5.61989 10.4087 5.5563 10.4351 5.49 10.4351C5.45642 10.4359 5.42305 10.4296 5.39204 10.4167C5.36103 10.4037 5.33308 10.3845 5.31 10.3601C5.211 10.4107 5.10117 10.4364 4.99 10.4351C4.79109 10.4351 4.60032 10.356 4.45967 10.2154C4.31902 10.0747 4.24 9.88397 4.24 9.68506V8.18506C4.24 8.11875 4.26634 8.05517 4.31322 8.00828C4.36011 7.9614 4.4237 7.93506 4.49 7.93506C4.5563 7.93506 4.61989 7.9614 4.66678 8.00828C4.71366 8.05517 4.74 8.11875 4.74 8.18506V9.68506C4.74 9.75136 4.76634 9.81495 4.81322 9.86184C4.86011 9.90872 4.9237 9.93506 4.99 9.93506C5.0563 9.93506 5.11989 9.90872 5.16678 9.86184C5.21366 9.81495 5.24 9.75136 5.24 9.68506V8.18506C5.24 8.11875 5.26634 8.05517 5.31322 8.00828C5.36011 7.9614 5.4237 7.93506 5.49 7.93506C5.5563 7.93506 5.61989 7.9614 5.66678 8.00828C5.71366 8.05517 5.74 8.11875 5.74 8.18506V9.68506ZM7.74 9.68506C7.74 9.88397 7.66098 10.0747 7.52033 10.2154C7.37968 10.356 7.18891 10.4351 6.99 10.4351C6.87591 10.4339 6.76339 10.4083 6.66 10.3601C6.61326 10.4019 6.55273 10.425 6.49 10.4251C6.4237 10.4251 6.36011 10.3987 6.31322 10.3518C6.26634 10.305 6.24 10.2414 6.24 10.1751V7.17506C6.24 7.10875 6.26634 7.04517 6.31322 6.99828C6.36011 6.9514 6.4237 6.92506 6.49 6.92506C6.5563 6.92506 6.61989 6.9514 6.66678 6.99828C6.71366 7.04517 6.74 7.10875 6.74 7.17506V8.00006C6.81954 7.96812 6.9043 7.95117 6.99 7.95006C7.18891 7.95006 7.37968 8.02908 7.52033 8.16973C7.66098 8.31038 7.74 8.50115 7.74 8.70006V9.68506ZM9.035 10.4351C8.8252 10.4239 8.62718 10.3346 8.48001 10.1846C8.33284 10.0347 8.24721 9.83503 8.24 9.62506V8.68506C8.24 8.48615 8.31902 8.29538 8.45967 8.15473C8.60032 8.01408 8.79109 7.93506 8.99 7.93506C9.18891 7.93506 9.37968 8.01408 9.52033 8.15473C9.66098 8.29538 9.74 8.48615 9.74 8.68506V9.18506C9.74 9.25136 9.71366 9.31495 9.66678 9.36184C9.61989 9.40872 9.5563 9.43506 9.49 9.43506H8.75V9.62506C8.75711 9.70239 8.79009 9.77507 8.84363 9.83132C8.89716 9.88758 8.96811 9.92413 9.045 9.93506C9.155 9.93506 9.335 9.88506 9.335 9.75006C9.335 9.68375 9.36134 9.62017 9.40822 9.57328C9.45511 9.5264 9.5187 9.50006 9.585 9.50006C9.6513 9.50006 9.71489 9.5264 9.76178 9.57328C9.80866 9.62017 9.835 9.68375 9.835 9.75006C9.83002 9.84758 9.80538 9.94309 9.76258 10.0309C9.71977 10.1186 9.65968 10.1969 9.5859 10.2608C9.51212 10.3248 9.42618 10.3732 9.33323 10.4031C9.24028 10.4331 9.14225 10.4439 9.045 10.4351H9.035Z" fill="white"/>
</svg>
